Input #0, mov,mp4,m4a,3gp,3g2,mj2, from '/home/hbattu/projects/huberman-gpt/huberman-audio/mp3/tmpsh4gijvk.mp4':
  Metadata:
    major_brand     : dash
    minor_version   : 0
    compatible_brands: iso6mp41
    creation_time   : 2022-12-20T18:00:41.000000Z
  Duration: 02:16:57.38, start: 0.000000, bitrate: 129 kb/s
    Stream #0:0(eng): Audio: aac (LC) (mp4a / 0x6134706D), 44100 Hz, stereo, fltp, 0 kb/s (default)
    Metadata:
      creation_time   : 2022-12-20T18:00:41.000000Z
      handler_name    : ISO Media file produced by Google Inc.
Stream mapping:
  Stream #0:0 -> #0:0 (aac (native) -> mp3 (libmp3lame))
Press [q] to stop, [?] for help
[graph_0_in_0_0 @ 0x55aade6eafc0] tb:1/44100 samplefmt:fltp samplerate:44100 chlayout:0x3
Output #0, mp3, to '../huberman-audio/mp3/KPlJcD-o-4Q.mp3':
  Metadata:
    major_brand     : dash
    minor_version   : 0
    compatible_brands: iso6mp41
    TSSE            : Lavf58.29.100
    Stream #0:0(eng): Audio: mp3 (libmp3lame), 44100 Hz, stereo, fltp, delay 1105 (default)
    Metadata:
      creation_time   : 2022-12-20T18:00:41.000000Z
      handler_name    : ISO Media file produced by Google Inc.
      encoder         : Lavc58.54.100 libmp3lame
No more output streams to write to, finishing.
size=  128397kB time=02:16:57.39 bitrate= 128.0kbits/s speed=94.1x    
[AVIOContext @ 0x55aade6ad900] Statistics: 0 seeks, 175 writeouts
video:0kB audio:128397kB subtitle:0kB other streams:0kB global headers:0kB muxing overhead: 0.000263%
Input file #0 (/home/hbattu/projects/huberman-gpt/huberman-audio/mp3/tmpsh4gijvk.mp4):
  Input stream #0:0 (audio): 353893 packets read (131478070 bytes); 353893 frames decoded (362386432 samples); 
  Total: 353893 packets (131478070 bytes) demuxed
Output file #0 (../huberman-audio/mp3/KPlJcD-o-4Q.mp3):
  Output stream #0:0 (audio): 314572 frames encoded (362386432 samples); 314573 packets muxed (131478674 bytes); 
  Total: 314573 packets (131478674 bytes) muxed
[AVIOContext @ 0x55aade6dbfc0] Statistics: 2 seeks, 503 writeouts
[AVIOContext @ 0x55aade6b6880] Statistics: 132989890 bytes read, 0 seeks
